<svg width="150" height="117" viewBox="0 0 150 117" fill="none" xmlns="http://www.w3.org/2000/svg">
<path d="M65.7478 42C60.0878 42 55.4978 46.5976 55.4978 52.27C55.4978 56.8489 57.2916 67.7165 74.9482 78.7022C75.2645 78.897 75.6276 79 75.9978 79C76.368 79 76.7311 78.897 77.0474 78.7022C94.7041 67.7165 96.4978 56.8489 96.4978 52.27C96.4978 46.5976 91.9079 42 86.2478 42C80.5878 42 75.9978 48.2242 75.9978 48.2242C75.9978 48.2242 71.4079 42 65.7478 42Z" stroke="white" stroke-width="5" stroke-linecap="round" stroke-linejoin="round"/>
<mask id="mask0_2_38" style="mask-type:alpha" maskUnits="userSpaceOnUse" x="0" y="0" width="116" height="117">
<path d="M40.6227 116.417H46.4144V104.833H40.6865C38.9026 104.799 23.2477 103.831 23.2477 81.6667C23.2477 70.1239 19.3963 62.8669 14.5487 58.5C19.3963 54.1331 23.2477 46.8761 23.2477 35.3333C23.2477 13.1686 38.9026 12.2014 40.6227 12.1667H46.4144V0.583344H40.6112C30.5974 0.60651 11.6644 7.90401 11.6644 35.3333C11.6644 51.55 1.946 52.6504 0 52.7083L0.0810837 64.2917C0.556 64.2917 11.6644 64.4886 11.6644 81.6667C11.6644 109.096 30.5974 116.394 40.6227 116.417ZM115.914 52.7083C115.439 52.7083 104.331 52.5114 104.331 35.3333C104.331 7.90401 85.3981 0.60651 75.3727 0.583344H69.5811V12.1667H75.309C77.0929 12.2014 92.7477 13.1686 92.7477 35.3333C92.7477 46.8761 96.5992 54.1331 101.447 58.5C96.5992 62.8669 92.7477 70.1239 92.7477 81.6667C92.7477 103.831 77.0929 104.799 75.3727 104.833H69.5811V116.417H75.3843C85.3981 116.394 104.331 109.096 104.331 81.6667C104.331 65.45 114.049 64.3496 115.995 64.2917L115.914 52.7083Z" fill="white"/>
</mask>
<g mask="url(#mask0_2_38)">
<rect x="-15.5022" y="-17" width="75" height="151" fill="white"/>
</g>
<mask id="mask1_2_38" style="mask-type:alpha" maskUnits="userSpaceOnUse" x="33" y="0" width="117" height="116">
<path d="M108.871 115.833H103.079V104.25H108.807C110.591 104.215 126.246 103.248 126.246 81.0833C126.246 69.5405 130.097 62.2836 134.945 57.9167C130.097 53.5498 126.246 46.2928 126.246 34.75C126.246 12.5853 110.591 11.6181 108.871 11.5833H103.079V0H108.882C118.896 0.0231667 137.829 7.32067 137.829 34.75C137.829 50.9667 147.547 52.0671 149.493 52.125L149.412 63.7083C148.937 63.7083 137.829 63.9053 137.829 81.0833C137.829 108.513 118.896 115.81 108.871 115.833ZM33.5789 52.125C34.0538 52.125 45.1622 51.9281 45.1622 34.75C45.1622 7.32067 64.0952 0.0231667 74.1205 0H79.9122V11.5833H74.1842C72.4004 11.6181 56.7455 12.5853 56.7455 34.75C56.7455 46.2928 52.8941 53.5498 48.0464 57.9167C52.8941 62.2836 56.7455 69.5405 56.7455 81.0833C56.7455 103.248 72.4004 104.215 74.1205 104.25H79.9122V115.833H74.109C64.0952 115.81 45.1622 108.513 45.1622 81.0833C45.1622 64.8667 35.4438 63.7663 33.4978 63.7083L33.5789 52.125Z" fill="white"/>
</mask>
<g mask="url(#mask1_2_38)">
<rect width="75" height="151" transform="matrix(-1 0 0 1 164.995 -17.5833)" fill="white"/>
</g>
</svg>
